<svg xmlns="http://www.w3.org/2000/svg" width="696" height="158" viewBox="0 0 696 158" font-family="-apple-system,Segoe UI,Helvetica,Arial,sans-serif">
<style>
  text.lbl { fill:#7d8590; font-size:13px; font-weight:600; }
  text.total { fill:#e6edf3; font-size:15px; font-weight:700; }
  .c { transform-box:fill-box; transform-origin:center; opacity:0; animation:pop 0.55s ease-out both; }
  .g { animation:pop 0.55s ease-out both, flash 0.7000000000000001s ease-out both; }
  @keyframes pop { 0%{opacity:0;transform:scale(.2)} 60%{opacity:1;transform:scale(1.1)} 100%{opacity:1;transform:scale(1)} }
  @keyframes flash { 0%{filter:brightness(2.4)} 45%{filter:brightness(2.4)} 100%{filter:brightness(1)} }
  @media (prefers-reduced-motion: reduce) { .c { opacity:1 !important; animation:none !important; } }
</style>
<rect width="696" height="158" fill="none"/>
<text class="lbl" x="34" y="16">Dec</text><text class="lbl" x="50" y="16">Jan</text><text class="lbl" x="114" y="16">Feb</text><text class="lbl" x="178" y="16">Mar</text><text class="lbl" x="258" y="16">Apr</text><text class="lbl" x="322" y="16">May</text><text class="lbl" x="402" y="16">Jun</text><text class="lbl" x="466" y="16">Jul</text><text class="lbl" x="530" y="16">Aug</text><text class="lbl" x="610" y="16">Sep</text><text class="lbl" x="674" y="16">Oct</text><text class="lbl" x="2" y="51">Mon</text><text class="lbl" x="2" y="83">Wed</text><text class="lbl" x="2" y="115">Fri</text>
<rect class="c e" x="34" y="24" width="13" height="13" rx="2.5" fill="#161b22" style="animation-delay:0.0s"/><rect class="c e" x="34" y="40" width="13" height="13" rx="2.5" fill="#161b22" style="animation-delay:0.046s"/><rect class="c e" x="34" y="56" width="13" height="13" rx="2.5" fill="#161b22" style="animation-delay:0.091s"/><rect class="c e" x="34" y="72" width="13" height="13" rx="2.5" fill="#161b22" style="animation-delay:0.137s"/><rect class="c e" x="34" y="88" width="13" height="13" rx="2.5" fill="#161b22" style="animation-delay:0.183s"/><rect class="c e" x="34" y="104" width="13" height="13" rx="2.5" fill="#161b22" style="animation-delay:0.229s"/><rect class="c e" x="34" y="120" width="13" height="13" rx="2.5" fill="#161b22" style="animation-delay:0.274s"/><rect class="c e" x="50" y="24" width="13" height="13" rx="2.5" fill="#161b22" style="animation-delay:0.083s"/><rect class="c e" x="50" y="40" width="13" height="13" rx="2.5" fill="#161b22" style="animation-delay:0.129s"/><rect class="c e" x="50" y="56" width="13" height="13" rx="2.5" fill="#161b22" style="animation-delay:0.175s"/><rect class="c e" x="50" y="72" width="13" height="13" rx="2.5" fill="#161b22" style="animation-delay:0.22s"/><rect class="c e" x="50" y="88" width="13" height="13" rx="2.5" fill="#161b22" style="animation-delay:0.266s"/><rect class="c e" x="50" y="104" width="13" height="13" rx="2.5" fill="#161b22" style="animation-delay:0.312s"/><rect class="c e" x="50" y="120" width="13" height="13" rx="2.5" fill="#161b22" style="animation-delay:0.358s"/><rect class="c e" x="66" y="24" width="13" height="13" rx="2.5" fill="#161b22" style="animation-delay:0.166s"/><rect class="c e" x="66" y="40" width="13" height="13" rx="2.5" fill="#161b22" style="animation-delay:0.212s"/><rect class="c e" x="66" y="56" width="13" height="13" rx="2.5" fill="#161b22" style="animation-delay:0.258s"/><rect class="c e" x="66" y="72" width="13" height="13" rx="2.5" fill="#161b22" style="animation-delay:0.303s"/><rect class="c e" x="66" y="88" width="13" height="13" rx="2.5" fill="#161b22" style="animation-delay:0.349s"/><rect class="c e" x="66" y="104" width="13" height="13" rx="2.5" fill="#161b22" style="animation-delay:0.395s"/><rect class="c e" x="66" y="120" width="13" height="13" rx="2.5" fill="#161b22" style="animation-delay:0.441s"/><rect class="c e" x="82" y="24" width="13" height="13" rx="2.5" fill="#161b22" style="animation-delay:0.249s"/><rect class="c e" x="82" y="40" width="13" height="13" rx="2.5" fill="#161b22" style="animation-delay:0.295s"/><rect class="c e" x="82" y="56" width="13" height="13" rx="2.5" fill="#161b22" style="animation-delay:0.341s"/><rect class="c e" x="82" y="72" width="13" height="13" rx="2.5" fill="#161b22" style="animation-delay:0.387s"/><rect class="c e" x="82" y="88" width="13" height="13" rx="2.5" fill="#161b22" style="animation-delay:0.432s"/><rect class="c e" x="82" y="104" width="13" height="13" rx="2.5" fill="#161b22" style="animation-delay:0.478s"/><rect class="c e" x="82" y="120" width="13" height="13" rx="2.5" fill="#161b22" style="animation-delay:0.524s"/><rect class="c e" x="98" y="24" width="13" height="13" rx="2.5" fill="#161b22" style="animation-delay:0.333s"/><rect class="c e" x="98" y="40" width="13" height="13" rx="2.5" fill="#161b22" style="animation-delay:0.378s"/><rect class="c e" x="98" y="56" width="13" height="13" rx="2.5" fill="#161b22" style="animation-delay:0.424s"/><rect class="c e" x="98" y="72" width="13" height="13" rx="2.5" fill="#161b22" style="animation-delay:0.47s"/><rect class="c e" x="98" y="88" width="13" height="13" rx="2.5" fill="#161b22" style="animation-delay:0.515s"/><rect class="c e" x="98" y="104" width="13" height="13" rx="2.5" fill="#161b22" style="animation-delay:0.561s"/><rect class="c e" x="98" y="120" width="13" height="13" rx="2.5" fill="#161b22" style="animation-delay:0.607s"/><rect class="c e" x="114" y="24" width="13" height="13" rx="2.5" fill="#161b22" style="animation-delay:0.416s"/><rect class="c e" x="114" y="40" width="13" height="13" rx="2.5" fill="#161b22" style="animation-delay:0.461s"/><rect class="c e" x="114" y="56" width="13" height="13" rx="2.5" fill="#161b22" style="animation-delay:0.507s"/><rect class="c e" x="114" y="72" width="13" height="13" rx="2.5" fill="#161b22" style="animation-delay:0.553s"/><rect class="c e" x="114" y="88" width="13" height="13" rx="2.5" fill="#161b22" style="animation-delay:0.599s"/><rect class="c e" x="114" y="104" width="13" height="13" rx="2.5" fill="#161b22" style="animation-delay:0.644s"/><rect class="c e" x="114" y="120" width="13" height="13" rx="2.5" fill="#161b22" style="animation-delay:0.69s"/><rect class="c e" x="130" y="24" width="13" height="13" rx="2.5" fill="#161b22" style="animation-delay:0.499s"/><rect class="c e" x="130" y="40" width="13" height="13" rx="2.5" fill="#161b22" style="animation-delay:0.545s"/><rect class="c e" x="130" y="56" width="13" height="13" rx="2.5" fill="#161b22" style="animation-delay:0.59s"/><rect class="c e" x="130" y="72" width="13" height="13" rx="2.5" fill="#161b22" style="animation-delay:0.636s"/><rect class="c e" x="130" y="88" width="13" height="13" rx="2.5" fill="#161b22" style="animation-delay:0.682s"/><rect class="c e" x="130" y="104" width="13" height="13" rx="2.5" fill="#161b22" style="animation-delay:0.727s"/><rect class="c e" x="130" y="120" width="13" height="13" rx="2.5" fill="#161b22" style="animation-delay:0.773s"/><rect class="c e" x="146" y="24" width="13" height="13" rx="2.5" fill="#161b22" style="animation-delay:0.582s"/><rect class="c e" x="146" y="40" width="13" height="13" rx="2.5" fill="#161b22" style="animation-delay:0.628s"/><rect class="c e" x="146" y="56" width="13" height="13" rx="2.5" fill="#161b22" style="animation-delay:0.673s"/><rect class="c e" x="146" y="72" width="13" height="13" rx="2.5" fill="#161b22" style="animation-delay:0.719s"/><rect class="c e" x="146" y="88" width="13" height="13" rx="2.5" fill="#161b22" style="animation-delay:0.765s"/><rect class="c e" x="146" y="104" width="13" height="13" rx="2.5" fill="#161b22" style="animation-delay:0.811s"/><rect class="c e" x="146" y="120" width="13" height="13" rx="2.5" fill="#161b22" style="animation-delay:0.856s"/><rect class="c e" x="162" y="24" width="13" height="13" rx="2.5" fill="#161b22" style="animation-delay:0.665s"/><rect class="c e" x="162" y="40" width="13" height="13" rx="2.5" fill="#161b22" style="animation-delay:0.711s"/><rect class="c e" x="162" y="56" width="13" height="13" rx="2.5" fill="#161b22" style="animation-delay:0.757s"/><rect class="c e" x="162" y="72" width="13" height="13" rx="2.5" fill="#161b22" style="animation-delay:0.802s"/><rect class="c e" x="162" y="88" width="13" height="13" rx="2.5" fill="#161b22" style="animation-delay:0.848s"/><rect class="c e" x="162" y="104" width="13" height="13" rx="2.5" fill="#161b22" style="animation-delay:0.894s"/><rect class="c e" x="162" y="120" width="13" height="13" rx="2.5" fill="#161b22" style="animation-delay:0.939s"/><rect class="c e" x="178" y="24" width="13" height="13" rx="2.5" fill="#161b22" style="animation-delay:0.748s"/><rect class="c e" x="178" y="40" width="13" height="13" rx="2.5" fill="#161b22" style="animation-delay:0.794s"/><rect class="c e" x="178" y="56" width="13" height="13" rx="2.5" fill="#161b22" style="animation-delay:0.84s"/><rect class="c e" x="178" y="72" width="13" height="13" rx="2.5" fill="#161b22" style="animation-delay:0.885s"/><rect class="c e" x="178" y="88" width="13" height="13" rx="2.5" fill="#161b22" style="animation-delay:0.931s"/><rect class="c e" x="178" y="104" width="13" height="13" rx="2.5" fill="#161b22" style="animation-delay:0.977s"/><rect class="c e" x="178" y="120" width="13" height="13" rx="2.5" fill="#161b22" style="animation-delay:1.023s"/><rect class="c e" x="194" y="24" width="13" height="13" rx="2.5" fill="#161b22" style="animation-delay:0.831s"/><rect class="c e" x="194" y="40" width="13" height="13" rx="2.5" fill="#161b22" style="animation-delay:0.877s"/><rect class="c e" x="194" y="56" width="13" height="13" rx="2.5" fill="#161b22" style="animation-delay:0.923s"/><rect class="c e" x="194" y="72" width="13" height="13" rx="2.5" fill="#161b22" style="animation-delay:0.969s"/><rect class="c e" x="194" y="88" width="13" height="13" rx="2.5" fill="#161b22" style="animation-delay:1.014s"/><rect class="c e" x="194" y="104" width="13" height="13" rx="2.5" fill="#161b22" style="animation-delay:1.06s"/><rect class="c g" x="194" y="120" width="13" height="13" rx="2.5" fill="#006d32" style="animation-delay:1.106s"/><rect class="c g" x="210" y="24" width="13" height="13" rx="2.5" fill="#26a641" style="animation-delay:0.915s"/><rect class="c e" x="210" y="40" width="13" height="13" rx="2.5" fill="#161b22" style="animation-delay:0.96s"/><rect class="c e" x="210" y="56" width="13" height="13" rx="2.5" fill="#161b22" style="animation-delay:1.006s"/><rect class="c e" x="210" y="72" width="13" height="13" rx="2.5" fill="#161b22" style="animation-delay:1.052s"/><rect class="c e" x="210" y="88" width="13" height="13" rx="2.5" fill="#161b22" style="animation-delay:1.097s"/><rect class="c e" x="210" y="104" width="13" height="13" rx="2.5" fill="#161b22" style="animation-delay:1.143s"/><rect class="c g" x="210" y="120" width="13" height="13" rx="2.5" fill="#26a641" style="animation-delay:1.189s"/><rect class="c e" x="226" y="24" width="13" height="13" rx="2.5" fill="#161b22" style="animation-delay:0.998s"/><rect class="c e" x="226" y="40" width="13" height="13" rx="2.5" fill="#161b22" style="animation-delay:1.043s"/><rect class="c e" x="226" y="56" width="13" height="13" rx="2.5" fill="#161b22" style="animation-delay:1.089s"/><rect class="c e" x="226" y="72" width="13" height="13" rx="2.5" fill="#161b22" style="animation-delay:1.135s"/><rect class="c e" x="226" y="88" width="13" height="13" rx="2.5" fill="#161b22" style="animation-delay:1.181s"/><rect class="c e" x="226" y="104" width="13" height="13" rx="2.5" fill="#161b22" style="animation-delay:1.226s"/><rect class="c e" x="226" y="120" width="13" height="13" rx="2.5" fill="#161b22" style="animation-delay:1.272s"/><rect class="c e" x="242" y="24" width="13" height="13" rx="2.5" fill="#161b22" style="animation-delay:1.081s"/><rect class="c e" x="242" y="40" width="13" height="13" rx="2.5" fill="#161b22" style="animation-delay:1.127s"/><rect class="c e" x="242" y="56" width="13" height="13" rx="2.5" fill="#161b22" style="animation-delay:1.172s"/><rect class="c e" x="242" y="72" width="13" height="13" rx="2.5" fill="#161b22" style="animation-delay:1.218s"/><rect class="c e" x="242" y="88" width="13" height="13" rx="2.5" fill="#161b22" style="animation-delay:1.264s"/><rect class="c e" x="242" y="104" width="13" height="13" rx="2.5" fill="#161b22" style="animation-delay:1.309s"/><rect class="c e" x="242" y="120" width="13" height="13" rx="2.5" fill="#161b22" style="animation-delay:1.355s"/><rect class="c e" x="258" y="24" width="13" height="13" rx="2.5" fill="#161b22" style="animation-delay:1.164s"/><rect class="c e" x="258" y="40" width="13" height="13" rx="2.5" fill="#161b22" style="animation-delay:1.21s"/><rect class="c e" x="258" y="56" width="13" height="13" rx="2.5" fill="#161b22" style="animation-delay:1.255s"/><rect class="c e" x="258" y="72" width="13" height="13" rx="2.5" fill="#161b22" style="animation-delay:1.301s"/><rect class="c e" x="258" y="88" width="13" height="13" rx="2.5" fill="#161b22" style="animation-delay:1.347s"/><rect class="c e" x="258" y="104" width="13" height="13" rx="2.5" fill="#161b22" style="animation-delay:1.393s"/><rect class="c e" x="258" y="120" width="13" height="13" rx="2.5" fill="#161b22" style="animation-delay:1.438s"/><rect class="c e" x="274" y="24" width="13" height="13" rx="2.5" fill="#161b22" style="animation-delay:1.247s"/><rect class="c e" x="274" y="40" width="13" height="13" rx="2.5" fill="#161b22" style="animation-delay:1.293s"/><rect class="c e" x="274" y="56" width="13" height="13" rx="2.5" fill="#161b22" style="animation-delay:1.339s"/><rect class="c e" x="274" y="72" width="13" height="13" rx="2.5" fill="#161b22" style="animation-delay:1.384s"/><rect class="c e" x="274" y="88" width="13" height="13" rx="2.5" fill="#161b22" style="animation-delay:1.43s"/><rect class="c e" x="274" y="104" width="13" height="13" rx="2.5" fill="#161b22" style="animation-delay:1.476s"/><rect class="c e" x="274" y="120" width="13" height="13" rx="2.5" fill="#161b22" style="animation-delay:1.521s"/><rect class="c e" x="290" y="24" width="13" height="13" rx="2.5" fill="#161b22" style="animation-delay:1.33s"/><rect class="c e" x="290" y="40" width="13" height="13" rx="2.5" fill="#161b22" style="animation-delay:1.376s"/><rect class="c e" x="290" y="56" width="13" height="13" rx="2.5" fill="#161b22" style="animation-delay:1.422s"/><rect class="c e" x="290" y="72" width="13" height="13" rx="2.5" fill="#161b22" style="animation-delay:1.467s"/><rect class="c e" x="290" y="88" width="13" height="13" rx="2.5" fill="#161b22" style="animation-delay:1.513s"/><rect class="c e" x="290" y="104" width="13" height="13" rx="2.5" fill="#161b22" style="animation-delay:1.559s"/><rect class="c e" x="290" y="120" width="13" height="13" rx="2.5" fill="#161b22" style="animation-delay:1.605s"/><rect class="c e" x="306" y="24" width="13" height="13" rx="2.5" fill="#161b22" style="animation-delay:1.413s"/><rect class="c e" x="306" y="40" width="13" height="13" rx="2.5" fill="#161b22" style="animation-delay:1.459s"/><rect class="c e" x="306" y="56" width="13" height="13" rx="2.5" fill="#161b22" style="animation-delay:1.505s"/><rect class="c e" x="306" y="72" width="13" height="13" rx="2.5" fill="#161b22" style="animation-delay:1.551s"/><rect class="c e" x="306" y="88" width="13" height="13" rx="2.5" fill="#161b22" style="animation-delay:1.596s"/><rect class="c e" x="306" y="104" width="13" height="13" rx="2.5" fill="#161b22" style="animation-delay:1.642s"/><rect class="c e" x="306" y="120" width="13" height="13" rx="2.5" fill="#161b22" style="animation-delay:1.688s"/><rect class="c e" x="322" y="24" width="13" height="13" rx="2.5" fill="#161b22" style="animation-delay:1.497s"/><rect class="c e" x="322" y="40" width="13" height="13" rx="2.5" fill="#161b22" style="animation-delay:1.542s"/><rect class="c e" x="322" y="56" width="13" height="13" rx="2.5" fill="#161b22" style="animation-delay:1.588s"/><rect class="c e" x="322" y="72" width="13" height="13" rx="2.5" fill="#161b22" style="animation-delay:1.634s"/><rect class="c e" x="322" y="88" width="13" height="13" rx="2.5" fill="#161b22" style="animation-delay:1.679s"/><rect class="c e" x="322" y="104" width="13" height="13" rx="2.5" fill="#161b22" style="animation-delay:1.725s"/><rect class="c e" x="322" y="120" width="13" height="13" rx="2.5" fill="#161b22" style="animation-delay:1.771s"/><rect class="c e" x="338" y="24" width="13" height="13" rx="2.5" fill="#161b22" style="animation-delay:1.58s"/><rect class="c e" x="338" y="40" width="13" height="13" rx="2.5" fill="#161b22" style="animation-delay:1.625s"/><rect class="c e" x="338" y="56" width="13" height="13" rx="2.5" fill="#161b22" style="animation-delay:1.671s"/><rect class="c e" x="338" y="72" width="13" height="13" rx="2.5" fill="#161b22" style="animation-delay:1.717s"/><rect class="c e" x="338" y="88" width="13" height="13" rx="2.5" fill="#161b22" style="animation-delay:1.763s"/><rect class="c e" x="338" y="104" width="13" height="13" rx="2.5" fill="#161b22" style="animation-delay:1.808s"/><rect class="c e" x="338" y="120" width="13" height="13" rx="2.5" fill="#161b22" style="animation-delay:1.854s"/><rect class="c e" x="354" y="24" width="13" height="13" rx="2.5" fill="#161b22" style="animation-delay:1.663s"/><rect class="c e" x="354" y="40" width="13" height="13" rx="2.5" fill="#161b22" style="animation-delay:1.709s"/><rect class="c e" x="354" y="56" width="13" height="13" rx="2.5" fill="#161b22" style="animation-delay:1.754s"/><rect class="c e" x="354" y="72" width="13" height="13" rx="2.5" fill="#161b22" style="animation-delay:1.8s"/><rect class="c e" x="354" y="88" width="13" height="13" rx="2.5" fill="#161b22" style="animation-delay:1.846s"/><rect class="c e" x="354" y="104" width="13" height="13" rx="2.5" fill="#161b22" style="animation-delay:1.891s"/><rect class="c e" x="354" y="120" width="13" height="13" rx="2.5" fill="#161b22" style="animation-delay:1.937s"/><rect class="c e" x="370" y="24" width="13" height="13" rx="2.5" fill="#161b22" style="animation-delay:1.746s"/><rect class="c e" x="370" y="40" width="13" height="13" rx="2.5" fill="#161b22" style="animation-delay:1.792s"/><rect class="c e" x="370" y="56" width="13" height="13" rx="2.5" fill="#161b22" style="animation-delay:1.837s"/><rect class="c e" x="370" y="72" width="13" height="13" rx="2.5" fill="#161b22" style="animation-delay:1.883s"/><rect class="c e" x="370" y="88" width="13" height="13" rx="2.5" fill="#161b22" style="animation-delay:1.929s"/><rect class="c e" x="370" y="104" width="13" height="13" rx="2.5" fill="#161b22" style="animation-delay:1.975s"/><rect class="c e" x="370" y="120" width="13" height="13" rx="2.5" fill="#161b22" style="animation-delay:2.02s"/><rect class="c e" x="386" y="24" width="13" height="13" rx="2.5" fill="#161b22" style="animation-delay:1.829s"/><rect class="c e" x="386" y="40" width="13" height="13" rx="2.5" fill="#161b22" style="animation-delay:1.875s"/><rect class="c e" x="386" y="56" width="13" height="13" rx="2.5" fill="#161b22" style="animation-delay:1.921s"/><rect class="c e" x="386" y="72" width="13" height="13" rx="2.5" fill="#161b22" style="animation-delay:1.966s"/><rect class="c g" x="386" y="88" width="13" height="13" rx="2.5" fill="#006d32" style="animation-delay:2.012s"/><rect class="c e" x="386" y="104" width="13" height="13" rx="2.5" fill="#161b22" style="animation-delay:2.058s"/><rect class="c e" x="386" y="120" width="13" height="13" rx="2.5" fill="#161b22" style="animation-delay:2.103s"/><rect class="c e" x="402" y="24" width="13" height="13" rx="2.5" fill="#161b22" style="animation-delay:1.912s"/><rect class="c e" x="402" y="40" width="13" height="13" rx="2.5" fill="#161b22" style="animation-delay:1.958s"/><rect class="c e" x="402" y="56" width="13" height="13" rx="2.5" fill="#161b22" style="animation-delay:2.004s"/><rect class="c e" x="402" y="72" width="13" height="13" rx="2.5" fill="#161b22" style="animation-delay:2.049s"/><rect class="c e" x="402" y="88" width="13" height="13" rx="2.5" fill="#161b22" style="animation-delay:2.095s"/><rect class="c e" x="402" y="104" width="13" height="13" rx="2.5" fill="#161b22" style="animation-delay:2.141s"/><rect class="c e" x="402" y="120" width="13" height="13" rx="2.5" fill="#161b22" style="animation-delay:2.187s"/><rect class="c e" x="418" y="24" width="13" height="13" rx="2.5" fill="#161b22" style="animation-delay:1.995s"/><rect class="c e" x="418" y="40" width="13" height="13" rx="2.5" fill="#161b22" style="animation-delay:2.041s"/><rect class="c e" x="418" y="56" width="13" height="13" rx="2.5" fill="#161b22" style="animation-delay:2.087s"/><rect class="c e" x="418" y="72" width="13" height="13" rx="2.5" fill="#161b22" style="animation-delay:2.133s"/><rect class="c g" x="418" y="88" width="13" height="13" rx="2.5" fill="#0e4429" style="animation-delay:2.178s"/><rect class="c g" x="418" y="104" width="13" height="13" rx="2.5" fill="#006d32" style="animation-delay:2.224s"/><rect class="c e" x="418" y="120" width="13" height="13" rx="2.5" fill="#161b22" style="animation-delay:2.27s"/><rect class="c e" x="434" y="24" width="13" height="13" rx="2.5" fill="#161b22" style="animation-delay:2.079s"/><rect class="c e" x="434" y="40" width="13" height="13" rx="2.5" fill="#161b22" style="animation-delay:2.124s"/><rect class="c e" x="434" y="56" width="13" height="13" rx="2.5" fill="#161b22" style="animation-delay:2.17s"/><rect class="c e" x="434" y="72" width="13" height="13" rx="2.5" fill="#161b22" style="animation-delay:2.216s"/><rect class="c e" x="434" y="88" width="13" height="13" rx="2.5" fill="#161b22" style="animation-delay:2.261s"/><rect class="c e" x="434" y="104" width="13" height="13" rx="2.5" fill="#161b22" style="animation-delay:2.307s"/><rect class="c e" x="434" y="120" width="13" height="13" rx="2.5" fill="#161b22" style="animation-delay:2.353s"/><rect class="c e" x="450" y="24" width="13" height="13" rx="2.5" fill="#161b22" style="animation-delay:2.162s"/><rect class="c e" x="450" y="40" width="13" height="13" rx="2.5" fill="#161b22" style="animation-delay:2.207s"/><rect class="c e" x="450" y="56" width="13" height="13" rx="2.5" fill="#161b22" style="animation-delay:2.253s"/><rect class="c e" x="450" y="72" width="13" height="13" rx="2.5" fill="#161b22" style="animation-delay:2.299s"/><rect class="c e" x="450" y="88" width="13" height="13" rx="2.5" fill="#161b22" style="animation-delay:2.345s"/><rect class="c e" x="450" y="104" width="13" height="13" rx="2.5" fill="#161b22" style="animation-delay:2.39s"/><rect class="c e" x="450" y="120" width="13" height="13" rx="2.5" fill="#161b22" style="animation-delay:2.436s"/><rect class="c e" x="466" y="24" width="13" height="13" rx="2.5" fill="#161b22" style="animation-delay:2.245s"/><rect class="c e" x="466" y="40" width="13" height="13" rx="2.5" fill="#161b22" style="animation-delay:2.291s"/><rect class="c e" x="466" y="56" width="13" height="13" rx="2.5" fill="#161b22" style="animation-delay:2.336s"/><rect class="c e" x="466" y="72" width="13" height="13" rx="2.5" fill="#161b22" style="animation-delay:2.382s"/><rect class="c e" x="466" y="88" width="13" height="13" rx="2.5" fill="#161b22" style="animation-delay:2.428s"/><rect class="c e" x="466" y="104" width="13" height="13" rx="2.5" fill="#161b22" style="animation-delay:2.473s"/><rect class="c g" x="466" y="120" width="13" height="13" rx="2.5" fill="#006d32" style="animation-delay:2.519s"/><rect class="c e" x="482" y="24" width="13" height="13" rx="2.5" fill="#161b22" style="animation-delay:2.328s"/><rect class="c e" x="482" y="40" width="13" height="13" rx="2.5" fill="#161b22" style="animation-delay:2.374s"/><rect class="c e" x="482" y="56" width="13" height="13" rx="2.5" fill="#161b22" style="animation-delay:2.419s"/><rect class="c e" x="482" y="72" width="13" height="13" rx="2.5" fill="#161b22" style="animation-delay:2.465s"/><rect class="c e" x="482" y="88" width="13" height="13" rx="2.5" fill="#161b22" style="animation-delay:2.511s"/><rect class="c e" x="482" y="104" width="13" height="13" rx="2.5" fill="#161b22" style="animation-delay:2.557s"/><rect class="c e" x="482" y="120" width="13" height="13" rx="2.5" fill="#161b22" style="animation-delay:2.602s"/><rect class="c e" x="498" y="24" width="13" height="13" rx="2.5" fill="#161b22" style="animation-delay:2.411s"/><rect class="c e" x="498" y="40" width="13" height="13" rx="2.5" fill="#161b22" style="animation-delay:2.457s"/><rect class="c e" x="498" y="56" width="13" height="13" rx="2.5" fill="#161b22" style="animation-delay:2.503s"/><rect class="c g" x="498" y="72" width="13" height="13" rx="2.5" fill="#39d353" style="animation-delay:2.548s"/><rect class="c e" x="498" y="88" width="13" height="13" rx="2.5" fill="#161b22" style="animation-delay:2.594s"/><rect class="c e" x="498" y="104" width="13" height="13" rx="2.5" fill="#161b22" style="animation-delay:2.64s"/><rect class="c e" x="498" y="120" width="13" height="13" rx="2.5" fill="#161b22" style="animation-delay:2.685s"/><rect class="c e" x="514" y="24" width="13" height="13" rx="2.5" fill="#161b22" style="animation-delay:2.494s"/><rect class="c g" x="514" y="40" width="13" height="13" rx="2.5" fill="#0e4429" style="animation-delay:2.54s"/><rect class="c e" x="514" y="56" width="13" height="13" rx="2.5" fill="#161b22" style="animation-delay:2.586s"/><rect class="c g" x="514" y="72" width="13" height="13" rx="2.5" fill="#006d32" style="animation-delay:2.631s"/><rect class="c e" x="514" y="88" width="13" height="13" rx="2.5" fill="#161b22" style="animation-delay:2.677s"/><rect class="c e" x="514" y="104" width="13" height="13" rx="2.5" fill="#161b22" style="animation-delay:2.723s"/><rect class="c e" x="514" y="120" width="13" height="13" rx="2.5" fill="#161b22" style="animation-delay:2.769s"/><rect class="c e" x="530" y="24" width="13" height="13" rx="2.5" fill="#161b22" style="animation-delay:2.577s"/><rect class="c e" x="530" y="40" width="13" height="13" rx="2.5" fill="#161b22" style="animation-delay:2.623s"/><rect class="c e" x="530" y="56" width="13" height="13" rx="2.5" fill="#161b22" style="animation-delay:2.669s"/><rect class="c g" x="530" y="72" width="13" height="13" rx="2.5" fill="#26a641" style="animation-delay:2.715s"/><rect class="c g" x="530" y="88" width="13" height="13" rx="2.5" fill="#39d353" style="animation-delay:2.76s"/><rect class="c g" x="530" y="104" width="13" height="13" rx="2.5" fill="#0e4429" style="animation-delay:2.806s"/><rect class="c g" x="530" y="120" width="13" height="13" rx="2.5" fill="#0e4429" style="animation-delay:2.852s"/><rect class="c g" x="546" y="24" width="13" height="13" rx="2.5" fill="#0e4429" style="animation-delay:2.661s"/><rect class="c g" x="546" y="40" width="13" height="13" rx="2.5" fill="#0e4429" style="animation-delay:2.706s"/><rect class="c g" x="546" y="56" width="13" height="13" rx="2.5" fill="#0e4429" style="animation-delay:2.752s"/><rect class="c g" x="546" y="72" width="13" height="13" rx="2.5" fill="#0e4429" style="animation-delay:2.798s"/><rect class="c g" x="546" y="88" width="13" height="13" rx="2.5" fill="#006d32" style="animation-delay:2.843s"/><rect class="c g" x="546" y="104" width="13" height="13" rx="2.5" fill="#0e4429" style="animation-delay:2.889s"/><rect class="c g" x="546" y="120" width="13" height="13" rx="2.5" fill="#0e4429" style="animation-delay:2.935s"/><rect class="c g" x="562" y="24" width="13" height="13" rx="2.5" fill="#0e4429" style="animation-delay:2.744s"/><rect class="c g" x="562" y="40" width="13" height="13" rx="2.5" fill="#0e4429" style="animation-delay:2.789s"/><rect class="c g" x="562" y="56" width="13" height="13" rx="2.5" fill="#0e4429" style="animation-delay:2.835s"/><rect class="c g" x="562" y="72" width="13" height="13" rx="2.5" fill="#0e4429" style="animation-delay:2.881s"/><rect class="c g" x="562" y="88" width="13" height="13" rx="2.5" fill="#0e4429" style="animation-delay:2.927s"/><rect class="c g" x="562" y="104" width="13" height="13" rx="2.5" fill="#0e4429" style="animation-delay:2.972s"/><rect class="c g" x="562" y="120" width="13" height="13" rx="2.5" fill="#0e4429" style="animation-delay:3.018s"/><rect class="c g" x="578" y="24" width="13" height="13" rx="2.5" fill="#0e4429" style="animation-delay:2.827s"/><rect class="c g" x="578" y="40" width="13" height="13" rx="2.5" fill="#0e4429" style="animation-delay:2.873s"/><rect class="c g" x="578" y="56" width="13" height="13" rx="2.5" fill="#0e4429" style="animation-delay:2.918s"/><rect class="c g" x="578" y="72" width="13" height="13" rx="2.5" fill="#0e4429" style="animation-delay:2.964s"/><rect class="c g" x="578" y="88" width="13" height="13" rx="2.5" fill="#0e4429" style="animation-delay:3.01s"/><rect class="c g" x="578" y="104" width="13" height="13" rx="2.5" fill="#0e4429" style="animation-delay:3.055s"/><rect class="c g" x="578" y="120" width="13" height="13" rx="2.5" fill="#0e4429" style="animation-delay:3.101s"/><rect class="c g" x="594" y="24" width="13" height="13" rx="2.5" fill="#0e4429" style="animation-delay:2.91s"/><rect class="c g" x="594" y="40" width="13" height="13" rx="2.5" fill="#0e4429" style="animation-delay:2.956s"/><rect class="c g" x="594" y="56" width="13" height="13" rx="2.5" fill="#0e4429" style="animation-delay:3.001s"/><rect class="c g" x="594" y="72" width="13" height="13" rx="2.5" fill="#0e4429" style="animation-delay:3.047s"/><rect class="c g" x="594" y="88" width="13" height="13" rx="2.5" fill="#0e4429" style="animation-delay:3.093s"/><rect class="c g" x="594" y="104" width="13" height="13" rx="2.5" fill="#0e4429" style="animation-delay:3.139s"/><rect class="c g" x="594" y="120" width="13" height="13" rx="2.5" fill="#0e4429" style="animation-delay:3.184s"/><rect class="c g" x="610" y="24" width="13" height="13" rx="2.5" fill="#0e4429" style="animation-delay:2.993s"/><rect class="c g" x="610" y="40" width="13" height="13" rx="2.5" fill="#0e4429" style="animation-delay:3.039s"/><rect class="c g" x="610" y="56" width="13" height="13" rx="2.5" fill="#0e4429" style="animation-delay:3.085s"/><rect class="c g" x="610" y="72" width="13" height="13" rx="2.5" fill="#0e4429" style="animation-delay:3.13s"/><rect class="c g" x="610" y="88" width="13" height="13" rx="2.5" fill="#0e4429" style="animation-delay:3.176s"/><rect class="c g" x="610" y="104" width="13" height="13" rx="2.5" fill="#0e4429" style="animation-delay:3.222s"/><rect class="c g" x="610" y="120" width="13" height="13" rx="2.5" fill="#0e4429" style="animation-delay:3.267s"/><rect class="c g" x="626" y="24" width="13" height="13" rx="2.5" fill="#0e4429" style="animation-delay:3.076s"/><rect class="c g" x="626" y="40" width="13" height="13" rx="2.5" fill="#0e4429" style="animation-delay:3.122s"/><rect class="c g" x="626" y="56" width="13" height="13" rx="2.5" fill="#0e4429" style="animation-delay:3.168s"/><rect class="c g" x="626" y="72" width="13" height="13" rx="2.5" fill="#0e4429" style="animation-delay:3.213s"/><rect class="c g" x="626" y="88" width="13" height="13" rx="2.5" fill="#0e4429" style="animation-delay:3.259s"/><rect class="c g" x="626" y="104" width="13" height="13" rx="2.5" fill="#0e4429" style="animation-delay:3.305s"/><rect class="c g" x="626" y="120" width="13" height="13" rx="2.5" fill="#0e4429" style="animation-delay:3.351s"/><rect class="c g" x="642" y="24" width="13" height="13" rx="2.5" fill="#0e4429" style="animation-delay:3.159s"/><rect class="c g" x="642" y="40" width="13" height="13" rx="2.5" fill="#0e4429" style="animation-delay:3.205s"/><rect class="c g" x="642" y="56" width="13" height="13" rx="2.5" fill="#0e4429" style="animation-delay:3.251s"/><rect class="c g" x="642" y="72" width="13" height="13" rx="2.5" fill="#0e4429" style="animation-delay:3.297s"/><rect class="c g" x="642" y="88" width="13" height="13" rx="2.5" fill="#0e4429" style="animation-delay:3.342s"/><rect class="c g" x="642" y="104" width="13" height="13" rx="2.5" fill="#0e4429" style="animation-delay:3.388s"/><rect class="c g" x="642" y="120" width="13" height="13" rx="2.5" fill="#0e4429" style="animation-delay:3.434s"/><rect class="c g" x="658" y="24" width="13" height="13" rx="2.5" fill="#0e4429" style="animation-delay:3.242s"/><rect class="c g" x="658" y="40" width="13" height="13" rx="2.5" fill="#0e4429" style="animation-delay:3.288s"/><rect class="c g" x="658" y="56" width="13" height="13" rx="2.5" fill="#0e4429" style="animation-delay:3.334s"/><rect class="c g" x="658" y="72" width="13" height="13" rx="2.5" fill="#0e4429" style="animation-delay:3.38s"/><rect class="c g" x="658" y="88" width="13" height="13" rx="2.5" fill="#0e4429" style="animation-delay:3.425s"/><rect class="c g" x="658" y="104" width="13" height="13" rx="2.5" fill="#0e4429" style="animation-delay:3.471s"/><rect class="c g" x="658" y="120" width="13" height="13" rx="2.5" fill="#0e4429" style="animation-delay:3.517s"/><rect class="c g" x="674" y="24" width="13" height="13" rx="2.5" fill="#0e4429" style="animation-delay:3.326s"/><rect class="c g" x="674" y="40" width="13" height="13" rx="2.5" fill="#0e4429" style="animation-delay:3.371s"/><rect class="c g" x="674" y="56" width="13" height="13" rx="2.5" fill="#0e4429" style="animation-delay:3.417s"/><rect class="c g" x="674" y="72" width="13" height="13" rx="2.5" fill="#0e4429" style="animation-delay:3.463s"/><rect class="c e" x="674" y="88" width="13" height="13" rx="2.5" fill="#161b22" style="animation-delay:3.509s"/>
<text class="total" x="34" y="152">Live contributions since Jan 2026</text>
</svg>