<svg xmlns="http://www.w3.org/2000/svg" width="648" height="158" viewBox="0 0 648 158" font-family="-apple-system,Segoe UI,Helvetica,Arial,sans-serif">
<style>
  text.lbl { fill:#7d8590; font-size:13px; font-weight:600; }
  text.total { fill:#e6edf3; font-size:15px; font-weight:700; }
  .c { transform-box:fill-box; transform-origin:center; opacity:0; animation:pop 0.55s ease-out both; }
  .g { animation:pop 0.55s ease-out both, flash 0.7000000000000001s ease-out both; }
  @keyframes pop { 0%{opacity:0;transform:scale(.2)} 60%{opacity:1;transform:scale(1.1)} 100%{opacity:1;transform:scale(1)} }
  @keyframes flash { 0%{filter:brightness(2.4)} 45%{filter:brightness(2.4)} 100%{filter:brightness(1)} }
  @media (prefers-reduced-motion: reduce) { .c { opacity:1 !important; animation:none !important; } }
</style>
<rect width="648" height="158" fill="none"/>
<text class="lbl" x="34" y="16">Dec</text><text class="lbl" x="50" y="16">Jan</text><text class="lbl" x="114" y="16">Feb</text><text class="lbl" x="178" y="16">Mar</text><text class="lbl" x="258" y="16">Apr</text><text class="lbl" x="322" y="16">May</text><text class="lbl" x="402" y="16">Jun</text><text class="lbl" x="466" y="16">Jul</text><text class="lbl" x="530" y="16">Aug</text><text class="lbl" x="610" y="16">Sep</text><text class="lbl" x="2" y="51">Mon</text><text class="lbl" x="2" y="83">Wed</text><text class="lbl" x="2" y="115">Fri</text>
<rect class="c e" x="34" y="24" width="13" height="13" rx="2.5" fill="#161b22" style="animation-delay:0.0s"/><rect class="c e" x="34" y="40" width="13" height="13" rx="2.5" fill="#161b22" style="animation-delay:0.049s"/><rect class="c e" x="34" y="56" width="13" height="13" rx="2.5" fill="#161b22" style="animation-delay:0.098s"/><rect class="c e" x="34" y="72" width="13" height="13" rx="2.5" fill="#161b22" style="animation-delay:0.147s"/><rect class="c e" x="34" y="88" width="13" height="13" rx="2.5" fill="#161b22" style="animation-delay:0.197s"/><rect class="c e" x="34" y="104" width="13" height="13" rx="2.5" fill="#161b22" style="animation-delay:0.246s"/><rect class="c e" x="34" y="120" width="13" height="13" rx="2.5" fill="#161b22" style="animation-delay:0.295s"/><rect class="c e" x="50" y="24" width="13" height="13" rx="2.5" fill="#161b22" style="animation-delay:0.089s"/><rect class="c e" x="50" y="40" width="13" height="13" rx="2.5" fill="#161b22" style="animation-delay:0.138s"/><rect class="c e" x="50" y="56" width="13" height="13" rx="2.5" fill="#161b22" style="animation-delay:0.188s"/><rect class="c e" x="50" y="72" width="13" height="13" rx="2.5" fill="#161b22" style="animation-delay:0.237s"/><rect class="c e" x="50" y="88" width="13" height="13" rx="2.5" fill="#161b22" style="animation-delay:0.286s"/><rect class="c e" x="50" y="104" width="13" height="13" rx="2.5" fill="#161b22" style="animation-delay:0.335s"/><rect class="c e" x="50" y="120" width="13" height="13" rx="2.5" fill="#161b22" style="animation-delay:0.384s"/><rect class="c e" x="66" y="24" width="13" height="13" rx="2.5" fill="#161b22" style="animation-delay:0.179s"/><rect class="c e" x="66" y="40" width="13" height="13" rx="2.5" fill="#161b22" style="animation-delay:0.228s"/><rect class="c e" x="66" y="56" width="13" height="13" rx="2.5" fill="#161b22" style="animation-delay:0.277s"/><rect class="c e" x="66" y="72" width="13" height="13" rx="2.5" fill="#161b22" style="animation-delay:0.326s"/><rect class="c e" x="66" y="88" width="13" height="13" rx="2.5" fill="#161b22" style="animation-delay:0.375s"/><rect class="c e" x="66" y="104" width="13" height="13" rx="2.5" fill="#161b22" style="animation-delay:0.424s"/><rect class="c e" x="66" y="120" width="13" height="13" rx="2.5" fill="#161b22" style="animation-delay:0.473s"/><rect class="c e" x="82" y="24" width="13" height="13" rx="2.5" fill="#161b22" style="animation-delay:0.268s"/><rect class="c e" x="82" y="40" width="13" height="13" rx="2.5" fill="#161b22" style="animation-delay:0.317s"/><rect class="c e" x="82" y="56" width="13" height="13" rx="2.5" fill="#161b22" style="animation-delay:0.366s"/><rect class="c e" x="82" y="72" width="13" height="13" rx="2.5" fill="#161b22" style="animation-delay:0.415s"/><rect class="c e" x="82" y="88" width="13" height="13" rx="2.5" fill="#161b22" style="animation-delay:0.465s"/><rect class="c e" x="82" y="104" width="13" height="13" rx="2.5" fill="#161b22" style="animation-delay:0.514s"/><rect class="c e" x="82" y="120" width="13" height="13" rx="2.5" fill="#161b22" style="animation-delay:0.563s"/><rect class="c e" x="98" y="24" width="13" height="13" rx="2.5" fill="#161b22" style="animation-delay:0.357s"/><rect class="c e" x="98" y="40" width="13" height="13" rx="2.5" fill="#161b22" style="animation-delay:0.406s"/><rect class="c e" x="98" y="56" width="13" height="13" rx="2.5" fill="#161b22" style="animation-delay:0.456s"/><rect class="c e" x="98" y="72" width="13" height="13" rx="2.5" fill="#161b22" style="animation-delay:0.505s"/><rect class="c e" x="98" y="88" width="13" height="13" rx="2.5" fill="#161b22" style="animation-delay:0.554s"/><rect class="c e" x="98" y="104" width="13" height="13" rx="2.5" fill="#161b22" style="animation-delay:0.603s"/><rect class="c e" x="98" y="120" width="13" height="13" rx="2.5" fill="#161b22" style="animation-delay:0.652s"/><rect class="c e" x="114" y="24" width="13" height="13" rx="2.5" fill="#161b22" style="animation-delay:0.447s"/><rect class="c e" x="114" y="40" width="13" height="13" rx="2.5" fill="#161b22" style="animation-delay:0.496s"/><rect class="c e" x="114" y="56" width="13" height="13" rx="2.5" fill="#161b22" style="animation-delay:0.545s"/><rect class="c e" x="114" y="72" width="13" height="13" rx="2.5" fill="#161b22" style="animation-delay:0.594s"/><rect class="c e" x="114" y="88" width="13" height="13" rx="2.5" fill="#161b22" style="animation-delay:0.643s"/><rect class="c e" x="114" y="104" width="13" height="13" rx="2.5" fill="#161b22" style="animation-delay:0.692s"/><rect class="c e" x="114" y="120" width="13" height="13" rx="2.5" fill="#161b22" style="animation-delay:0.741s"/><rect class="c e" x="130" y="24" width="13" height="13" rx="2.5" fill="#161b22" style="animation-delay:0.536s"/><rect class="c e" x="130" y="40" width="13" height="13" rx="2.5" fill="#161b22" style="animation-delay:0.585s"/><rect class="c e" x="130" y="56" width="13" height="13" rx="2.5" fill="#161b22" style="animation-delay:0.634s"/><rect class="c e" x="130" y="72" width="13" height="13" rx="2.5" fill="#161b22" style="animation-delay:0.683s"/><rect class="c e" x="130" y="88" width="13" height="13" rx="2.5" fill="#161b22" style="animation-delay:0.733s"/><rect class="c e" x="130" y="104" width="13" height="13" rx="2.5" fill="#161b22" style="animation-delay:0.782s"/><rect class="c e" x="130" y="120" width="13" height="13" rx="2.5" fill="#161b22" style="animation-delay:0.831s"/><rect class="c e" x="146" y="24" width="13" height="13" rx="2.5" fill="#161b22" style="animation-delay:0.625s"/><rect class="c e" x="146" y="40" width="13" height="13" rx="2.5" fill="#161b22" style="animation-delay:0.674s"/><rect class="c e" x="146" y="56" width="13" height="13" rx="2.5" fill="#161b22" style="animation-delay:0.724s"/><rect class="c e" x="146" y="72" width="13" height="13" rx="2.5" fill="#161b22" style="animation-delay:0.773s"/><rect class="c e" x="146" y="88" width="13" height="13" rx="2.5" fill="#161b22" style="animation-delay:0.822s"/><rect class="c e" x="146" y="104" width="13" height="13" rx="2.5" fill="#161b22" style="animation-delay:0.871s"/><rect class="c e" x="146" y="120" width="13" height="13" rx="2.5" fill="#161b22" style="animation-delay:0.92s"/><rect class="c e" x="162" y="24" width="13" height="13" rx="2.5" fill="#161b22" style="animation-delay:0.715s"/><rect class="c e" x="162" y="40" width="13" height="13" rx="2.5" fill="#161b22" style="animation-delay:0.764s"/><rect class="c e" x="162" y="56" width="13" height="13" rx="2.5" fill="#161b22" style="animation-delay:0.813s"/><rect class="c e" x="162" y="72" width="13" height="13" rx="2.5" fill="#161b22" style="animation-delay:0.862s"/><rect class="c e" x="162" y="88" width="13" height="13" rx="2.5" fill="#161b22" style="animation-delay:0.911s"/><rect class="c e" x="162" y="104" width="13" height="13" rx="2.5" fill="#161b22" style="animation-delay:0.96s"/><rect class="c e" x="162" y="120" width="13" height="13" rx="2.5" fill="#161b22" style="animation-delay:1.009s"/><rect class="c e" x="178" y="24" width="13" height="13" rx="2.5" fill="#161b22" style="animation-delay:0.804s"/><rect class="c e" x="178" y="40" width="13" height="13" rx="2.5" fill="#161b22" style="animation-delay:0.853s"/><rect class="c e" x="178" y="56" width="13" height="13" rx="2.5" fill="#161b22" style="animation-delay:0.902s"/><rect class="c e" x="178" y="72" width="13" height="13" rx="2.5" fill="#161b22" style="animation-delay:0.951s"/><rect class="c e" x="178" y="88" width="13" height="13" rx="2.5" fill="#161b22" style="animation-delay:1.0s"/><rect class="c e" x="178" y="104" width="13" height="13" rx="2.5" fill="#161b22" style="animation-delay:1.05s"/><rect class="c e" x="178" y="120" width="13" height="13" rx="2.5" fill="#161b22" style="animation-delay:1.099s"/><rect class="c e" x="194" y="24" width="13" height="13" rx="2.5" fill="#161b22" style="animation-delay:0.893s"/><rect class="c e" x="194" y="40" width="13" height="13" rx="2.5" fill="#161b22" style="animation-delay:0.942s"/><rect class="c e" x="194" y="56" width="13" height="13" rx="2.5" fill="#161b22" style="animation-delay:0.992s"/><rect class="c e" x="194" y="72" width="13" height="13" rx="2.5" fill="#161b22" style="animation-delay:1.041s"/><rect class="c e" x="194" y="88" width="13" height="13" rx="2.5" fill="#161b22" style="animation-delay:1.09s"/><rect class="c e" x="194" y="104" width="13" height="13" rx="2.5" fill="#161b22" style="animation-delay:1.139s"/><rect class="c e" x="194" y="120" width="13" height="13" rx="2.5" fill="#161b22" style="animation-delay:1.188s"/><rect class="c g" x="210" y="24" width="13" height="13" rx="2.5" fill="#26a641" style="animation-delay:0.983s"/><rect class="c e" x="210" y="40" width="13" height="13" rx="2.5" fill="#161b22" style="animation-delay:1.032s"/><rect class="c e" x="210" y="56" width="13" height="13" rx="2.5" fill="#161b22" style="animation-delay:1.081s"/><rect class="c e" x="210" y="72" width="13" height="13" rx="2.5" fill="#161b22" style="animation-delay:1.13s"/><rect class="c e" x="210" y="88" width="13" height="13" rx="2.5" fill="#161b22" style="animation-delay:1.179s"/><rect class="c e" x="210" y="104" width="13" height="13" rx="2.5" fill="#161b22" style="animation-delay:1.228s"/><rect class="c e" x="210" y="120" width="13" height="13" rx="2.5" fill="#161b22" style="animation-delay:1.277s"/><rect class="c e" x="226" y="24" width="13" height="13" rx="2.5" fill="#161b22" style="animation-delay:1.072s"/><rect class="c e" x="226" y="40" width="13" height="13" rx="2.5" fill="#161b22" style="animation-delay:1.121s"/><rect class="c e" x="226" y="56" width="13" height="13" rx="2.5" fill="#161b22" style="animation-delay:1.17s"/><rect class="c e" x="226" y="72" width="13" height="13" rx="2.5" fill="#161b22" style="animation-delay:1.219s"/><rect class="c e" x="226" y="88" width="13" height="13" rx="2.5" fill="#161b22" style="animation-delay:1.268s"/><rect class="c e" x="226" y="104" width="13" height="13" rx="2.5" fill="#161b22" style="animation-delay:1.318s"/><rect class="c e" x="226" y="120" width="13" height="13" rx="2.5" fill="#161b22" style="animation-delay:1.367s"/><rect class="c e" x="242" y="24" width="13" height="13" rx="2.5" fill="#161b22" style="animation-delay:1.161s"/><rect class="c e" x="242" y="40" width="13" height="13" rx="2.5" fill="#161b22" style="animation-delay:1.21s"/><rect class="c e" x="242" y="56" width="13" height="13" rx="2.5" fill="#161b22" style="animation-delay:1.26s"/><rect class="c e" x="242" y="72" width="13" height="13" rx="2.5" fill="#161b22" style="animation-delay:1.309s"/><rect class="c e" x="242" y="88" width="13" height="13" rx="2.5" fill="#161b22" style="animation-delay:1.358s"/><rect class="c e" x="242" y="104" width="13" height="13" rx="2.5" fill="#161b22" style="animation-delay:1.407s"/><rect class="c e" x="242" y="120" width="13" height="13" rx="2.5" fill="#161b22" style="animation-delay:1.456s"/><rect class="c e" x="258" y="24" width="13" height="13" rx="2.5" fill="#161b22" style="animation-delay:1.251s"/><rect class="c e" x="258" y="40" width="13" height="13" rx="2.5" fill="#161b22" style="animation-delay:1.3s"/><rect class="c e" x="258" y="56" width="13" height="13" rx="2.5" fill="#161b22" style="animation-delay:1.349s"/><rect class="c e" x="258" y="72" width="13" height="13" rx="2.5" fill="#161b22" style="animation-delay:1.398s"/><rect class="c e" x="258" y="88" width="13" height="13" rx="2.5" fill="#161b22" style="animation-delay:1.447s"/><rect class="c e" x="258" y="104" width="13" height="13" rx="2.5" fill="#161b22" style="animation-delay:1.496s"/><rect class="c e" x="258" y="120" width="13" height="13" rx="2.5" fill="#161b22" style="animation-delay:1.545s"/><rect class="c e" x="274" y="24" width="13" height="13" rx="2.5" fill="#161b22" style="animation-delay:1.34s"/><rect class="c e" x="274" y="40" width="13" height="13" rx="2.5" fill="#161b22" style="animation-delay:1.389s"/><rect class="c e" x="274" y="56" width="13" height="13" rx="2.5" fill="#161b22" style="animation-delay:1.438s"/><rect class="c e" x="274" y="72" width="13" height="13" rx="2.5" fill="#161b22" style="animation-delay:1.487s"/><rect class="c e" x="274" y="88" width="13" height="13" rx="2.5" fill="#161b22" style="animation-delay:1.536s"/><rect class="c e" x="274" y="104" width="13" height="13" rx="2.5" fill="#161b22" style="animation-delay:1.586s"/><rect class="c e" x="274" y="120" width="13" height="13" rx="2.5" fill="#161b22" style="animation-delay:1.635s"/><rect class="c e" x="290" y="24" width="13" height="13" rx="2.5" fill="#161b22" style="animation-delay:1.429s"/><rect class="c e" x="290" y="40" width="13" height="13" rx="2.5" fill="#161b22" style="animation-delay:1.478s"/><rect class="c e" x="290" y="56" width="13" height="13" rx="2.5" fill="#161b22" style="animation-delay:1.528s"/><rect class="c e" x="290" y="72" width="13" height="13" rx="2.5" fill="#161b22" style="animation-delay:1.577s"/><rect class="c e" x="290" y="88" width="13" height="13" rx="2.5" fill="#161b22" style="animation-delay:1.626s"/><rect class="c e" x="290" y="104" width="13" height="13" rx="2.5" fill="#161b22" style="animation-delay:1.675s"/><rect class="c e" x="290" y="120" width="13" height="13" rx="2.5" fill="#161b22" style="animation-delay:1.724s"/><rect class="c e" x="306" y="24" width="13" height="13" rx="2.5" fill="#161b22" style="animation-delay:1.519s"/><rect class="c e" x="306" y="40" width="13" height="13" rx="2.5" fill="#161b22" style="animation-delay:1.568s"/><rect class="c e" x="306" y="56" width="13" height="13" rx="2.5" fill="#161b22" style="animation-delay:1.617s"/><rect class="c e" x="306" y="72" width="13" height="13" rx="2.5" fill="#161b22" style="animation-delay:1.666s"/><rect class="c e" x="306" y="88" width="13" height="13" rx="2.5" fill="#161b22" style="animation-delay:1.715s"/><rect class="c e" x="306" y="104" width="13" height="13" rx="2.5" fill="#161b22" style="animation-delay:1.764s"/><rect class="c e" x="306" y="120" width="13" height="13" rx="2.5" fill="#161b22" style="animation-delay:1.813s"/><rect class="c e" x="322" y="24" width="13" height="13" rx="2.5" fill="#161b22" style="animation-delay:1.608s"/><rect class="c e" x="322" y="40" width="13" height="13" rx="2.5" fill="#161b22" style="animation-delay:1.657s"/><rect class="c e" x="322" y="56" width="13" height="13" rx="2.5" fill="#161b22" style="animation-delay:1.706s"/><rect class="c e" x="322" y="72" width="13" height="13" rx="2.5" fill="#161b22" style="animation-delay:1.755s"/><rect class="c e" x="322" y="88" width="13" height="13" rx="2.5" fill="#161b22" style="animation-delay:1.804s"/><rect class="c e" x="322" y="104" width="13" height="13" rx="2.5" fill="#161b22" style="animation-delay:1.854s"/><rect class="c e" x="322" y="120" width="13" height="13" rx="2.5" fill="#161b22" style="animation-delay:1.903s"/><rect class="c e" x="338" y="24" width="13" height="13" rx="2.5" fill="#161b22" style="animation-delay:1.697s"/><rect class="c e" x="338" y="40" width="13" height="13" rx="2.5" fill="#161b22" style="animation-delay:1.746s"/><rect class="c e" x="338" y="56" width="13" height="13" rx="2.5" fill="#161b22" style="animation-delay:1.796s"/><rect class="c e" x="338" y="72" width="13" height="13" rx="2.5" fill="#161b22" style="animation-delay:1.845s"/><rect class="c e" x="338" y="88" width="13" height="13" rx="2.5" fill="#161b22" style="animation-delay:1.894s"/><rect class="c e" x="338" y="104" width="13" height="13" rx="2.5" fill="#161b22" style="animation-delay:1.943s"/><rect class="c e" x="338" y="120" width="13" height="13" rx="2.5" fill="#161b22" style="animation-delay:1.992s"/><rect class="c e" x="354" y="24" width="13" height="13" rx="2.5" fill="#161b22" style="animation-delay:1.787s"/><rect class="c e" x="354" y="40" width="13" height="13" rx="2.5" fill="#161b22" style="animation-delay:1.836s"/><rect class="c e" x="354" y="56" width="13" height="13" rx="2.5" fill="#161b22" style="animation-delay:1.885s"/><rect class="c e" x="354" y="72" width="13" height="13" rx="2.5" fill="#161b22" style="animation-delay:1.934s"/><rect class="c e" x="354" y="88" width="13" height="13" rx="2.5" fill="#161b22" style="animation-delay:1.983s"/><rect class="c e" x="354" y="104" width="13" height="13" rx="2.5" fill="#161b22" style="animation-delay:2.032s"/><rect class="c e" x="354" y="120" width="13" height="13" rx="2.5" fill="#161b22" style="animation-delay:2.081s"/><rect class="c e" x="370" y="24" width="13" height="13" rx="2.5" fill="#161b22" style="animation-delay:1.876s"/><rect class="c e" x="370" y="40" width="13" height="13" rx="2.5" fill="#161b22" style="animation-delay:1.925s"/><rect class="c e" x="370" y="56" width="13" height="13" rx="2.5" fill="#161b22" style="animation-delay:1.974s"/><rect class="c e" x="370" y="72" width="13" height="13" rx="2.5" fill="#161b22" style="animation-delay:2.023s"/><rect class="c e" x="370" y="88" width="13" height="13" rx="2.5" fill="#161b22" style="animation-delay:2.072s"/><rect class="c e" x="370" y="104" width="13" height="13" rx="2.5" fill="#161b22" style="animation-delay:2.122s"/><rect class="c e" x="370" y="120" width="13" height="13" rx="2.5" fill="#161b22" style="animation-delay:2.171s"/><rect class="c e" x="386" y="24" width="13" height="13" rx="2.5" fill="#161b22" style="animation-delay:1.965s"/><rect class="c e" x="386" y="40" width="13" height="13" rx="2.5" fill="#161b22" style="animation-delay:2.014s"/><rect class="c e" x="386" y="56" width="13" height="13" rx="2.5" fill="#161b22" style="animation-delay:2.064s"/><rect class="c e" x="386" y="72" width="13" height="13" rx="2.5" fill="#161b22" style="animation-delay:2.113s"/><rect class="c g" x="386" y="88" width="13" height="13" rx="2.5" fill="#006d32" style="animation-delay:2.162s"/><rect class="c e" x="386" y="104" width="13" height="13" rx="2.5" fill="#161b22" style="animation-delay:2.211s"/><rect class="c e" x="386" y="120" width="13" height="13" rx="2.5" fill="#161b22" style="animation-delay:2.26s"/><rect class="c e" x="402" y="24" width="13" height="13" rx="2.5" fill="#161b22" style="animation-delay:2.055s"/><rect class="c e" x="402" y="40" width="13" height="13" rx="2.5" fill="#161b22" style="animation-delay:2.104s"/><rect class="c e" x="402" y="56" width="13" height="13" rx="2.5" fill="#161b22" style="animation-delay:2.153s"/><rect class="c e" x="402" y="72" width="13" height="13" rx="2.5" fill="#161b22" style="animation-delay:2.202s"/><rect class="c e" x="402" y="88" width="13" height="13" rx="2.5" fill="#161b22" style="animation-delay:2.251s"/><rect class="c e" x="402" y="104" width="13" height="13" rx="2.5" fill="#161b22" style="animation-delay:2.3s"/><rect class="c e" x="402" y="120" width="13" height="13" rx="2.5" fill="#161b22" style="animation-delay:2.349s"/><rect class="c e" x="418" y="24" width="13" height="13" rx="2.5" fill="#161b22" style="animation-delay:2.144s"/><rect class="c e" x="418" y="40" width="13" height="13" rx="2.5" fill="#161b22" style="animation-delay:2.193s"/><rect class="c e" x="418" y="56" width="13" height="13" rx="2.5" fill="#161b22" style="animation-delay:2.242s"/><rect class="c e" x="418" y="72" width="13" height="13" rx="2.5" fill="#161b22" style="animation-delay:2.291s"/><rect class="c g" x="418" y="88" width="13" height="13" rx="2.5" fill="#0e4429" style="animation-delay:2.34s"/><rect class="c g" x="418" y="104" width="13" height="13" rx="2.5" fill="#006d32" style="animation-delay:2.39s"/><rect class="c e" x="418" y="120" width="13" height="13" rx="2.5" fill="#161b22" style="animation-delay:2.439s"/><rect class="c e" x="434" y="24" width="13" height="13" rx="2.5" fill="#161b22" style="animation-delay:2.233s"/><rect class="c e" x="434" y="40" width="13" height="13" rx="2.5" fill="#161b22" style="animation-delay:2.282s"/><rect class="c e" x="434" y="56" width="13" height="13" rx="2.5" fill="#161b22" style="animation-delay:2.332s"/><rect class="c e" x="434" y="72" width="13" height="13" rx="2.5" fill="#161b22" style="animation-delay:2.381s"/><rect class="c e" x="434" y="88" width="13" height="13" rx="2.5" fill="#161b22" style="animation-delay:2.43s"/><rect class="c e" x="434" y="104" width="13" height="13" rx="2.5" fill="#161b22" style="animation-delay:2.479s"/><rect class="c e" x="434" y="120" width="13" height="13" rx="2.5" fill="#161b22" style="animation-delay:2.528s"/><rect class="c e" x="450" y="24" width="13" height="13" rx="2.5" fill="#161b22" style="animation-delay:2.323s"/><rect class="c e" x="450" y="40" width="13" height="13" rx="2.5" fill="#161b22" style="animation-delay:2.372s"/><rect class="c e" x="450" y="56" width="13" height="13" rx="2.5" fill="#161b22" style="animation-delay:2.421s"/><rect class="c e" x="450" y="72" width="13" height="13" rx="2.5" fill="#161b22" style="animation-delay:2.47s"/><rect class="c e" x="450" y="88" width="13" height="13" rx="2.5" fill="#161b22" style="animation-delay:2.519s"/><rect class="c e" x="450" y="104" width="13" height="13" rx="2.5" fill="#161b22" style="animation-delay:2.568s"/><rect class="c e" x="450" y="120" width="13" height="13" rx="2.5" fill="#161b22" style="animation-delay:2.617s"/><rect class="c e" x="466" y="24" width="13" height="13" rx="2.5" fill="#161b22" style="animation-delay:2.412s"/><rect class="c e" x="466" y="40" width="13" height="13" rx="2.5" fill="#161b22" style="animation-delay:2.461s"/><rect class="c e" x="466" y="56" width="13" height="13" rx="2.5" fill="#161b22" style="animation-delay:2.51s"/><rect class="c e" x="466" y="72" width="13" height="13" rx="2.5" fill="#161b22" style="animation-delay:2.559s"/><rect class="c e" x="466" y="88" width="13" height="13" rx="2.5" fill="#161b22" style="animation-delay:2.608s"/><rect class="c e" x="466" y="104" width="13" height="13" rx="2.5" fill="#161b22" style="animation-delay:2.658s"/><rect class="c g" x="466" y="120" width="13" height="13" rx="2.5" fill="#006d32" style="animation-delay:2.707s"/><rect class="c e" x="482" y="24" width="13" height="13" rx="2.5" fill="#161b22" style="animation-delay:2.501s"/><rect class="c e" x="482" y="40" width="13" height="13" rx="2.5" fill="#161b22" style="animation-delay:2.55s"/><rect class="c e" x="482" y="56" width="13" height="13" rx="2.5" fill="#161b22" style="animation-delay:2.6s"/><rect class="c e" x="482" y="72" width="13" height="13" rx="2.5" fill="#161b22" style="animation-delay:2.649s"/><rect class="c e" x="482" y="88" width="13" height="13" rx="2.5" fill="#161b22" style="animation-delay:2.698s"/><rect class="c e" x="482" y="104" width="13" height="13" rx="2.5" fill="#161b22" style="animation-delay:2.747s"/><rect class="c e" x="482" y="120" width="13" height="13" rx="2.5" fill="#161b22" style="animation-delay:2.796s"/><rect class="c e" x="498" y="24" width="13" height="13" rx="2.5" fill="#161b22" style="animation-delay:2.591s"/><rect class="c e" x="498" y="40" width="13" height="13" rx="2.5" fill="#161b22" style="animation-delay:2.64s"/><rect class="c e" x="498" y="56" width="13" height="13" rx="2.5" fill="#161b22" style="animation-delay:2.689s"/><rect class="c g" x="498" y="72" width="13" height="13" rx="2.5" fill="#39d353" style="animation-delay:2.738s"/><rect class="c e" x="498" y="88" width="13" height="13" rx="2.5" fill="#161b22" style="animation-delay:2.787s"/><rect class="c e" x="498" y="104" width="13" height="13" rx="2.5" fill="#161b22" style="animation-delay:2.836s"/><rect class="c e" x="498" y="120" width="13" height="13" rx="2.5" fill="#161b22" style="animation-delay:2.885s"/><rect class="c e" x="514" y="24" width="13" height="13" rx="2.5" fill="#161b22" style="animation-delay:2.68s"/><rect class="c g" x="514" y="40" width="13" height="13" rx="2.5" fill="#0e4429" style="animation-delay:2.729s"/><rect class="c e" x="514" y="56" width="13" height="13" rx="2.5" fill="#161b22" style="animation-delay:2.778s"/><rect class="c g" x="514" y="72" width="13" height="13" rx="2.5" fill="#006d32" style="animation-delay:2.827s"/><rect class="c e" x="514" y="88" width="13" height="13" rx="2.5" fill="#161b22" style="animation-delay:2.876s"/><rect class="c e" x="514" y="104" width="13" height="13" rx="2.5" fill="#161b22" style="animation-delay:2.926s"/><rect class="c e" x="514" y="120" width="13" height="13" rx="2.5" fill="#161b22" style="animation-delay:2.975s"/><rect class="c e" x="530" y="24" width="13" height="13" rx="2.5" fill="#161b22" style="animation-delay:2.769s"/><rect class="c e" x="530" y="40" width="13" height="13" rx="2.5" fill="#161b22" style="animation-delay:2.818s"/><rect class="c e" x="530" y="56" width="13" height="13" rx="2.5" fill="#161b22" style="animation-delay:2.867s"/><rect class="c g" x="530" y="72" width="13" height="13" rx="2.5" fill="#26a641" style="animation-delay:2.917s"/><rect class="c g" x="530" y="88" width="13" height="13" rx="2.5" fill="#39d353" style="animation-delay:2.966s"/><rect class="c g" x="530" y="104" width="13" height="13" rx="2.5" fill="#0e4429" style="animation-delay:3.015s"/><rect class="c g" x="530" y="120" width="13" height="13" rx="2.5" fill="#0e4429" style="animation-delay:3.064s"/><rect class="c g" x="546" y="24" width="13" height="13" rx="2.5" fill="#0e4429" style="animation-delay:2.859s"/><rect class="c g" x="546" y="40" width="13" height="13" rx="2.5" fill="#0e4429" style="animation-delay:2.908s"/><rect class="c g" x="546" y="56" width="13" height="13" rx="2.5" fill="#0e4429" style="animation-delay:2.957s"/><rect class="c g" x="546" y="72" width="13" height="13" rx="2.5" fill="#0e4429" style="animation-delay:3.006s"/><rect class="c g" x="546" y="88" width="13" height="13" rx="2.5" fill="#006d32" style="animation-delay:3.055s"/><rect class="c g" x="546" y="104" width="13" height="13" rx="2.5" fill="#0e4429" style="animation-delay:3.104s"/><rect class="c g" x="546" y="120" width="13" height="13" rx="2.5" fill="#0e4429" style="animation-delay:3.153s"/><rect class="c g" x="562" y="24" width="13" height="13" rx="2.5" fill="#0e4429" style="animation-delay:2.948s"/><rect class="c g" x="562" y="40" width="13" height="13" rx="2.5" fill="#0e4429" style="animation-delay:2.997s"/><rect class="c g" x="562" y="56" width="13" height="13" rx="2.5" fill="#0e4429" style="animation-delay:3.046s"/><rect class="c g" x="562" y="72" width="13" height="13" rx="2.5" fill="#0e4429" style="animation-delay:3.095s"/><rect class="c g" x="562" y="88" width="13" height="13" rx="2.5" fill="#0e4429" style="animation-delay:3.144s"/><rect class="c g" x="562" y="104" width="13" height="13" rx="2.5" fill="#0e4429" style="animation-delay:3.194s"/><rect class="c g" x="562" y="120" width="13" height="13" rx="2.5" fill="#0e4429" style="animation-delay:3.243s"/><rect class="c g" x="578" y="24" width="13" height="13" rx="2.5" fill="#0e4429" style="animation-delay:3.037s"/><rect class="c g" x="578" y="40" width="13" height="13" rx="2.5" fill="#0e4429" style="animation-delay:3.086s"/><rect class="c g" x="578" y="56" width="13" height="13" rx="2.5" fill="#0e4429" style="animation-delay:3.135s"/><rect class="c g" x="578" y="72" width="13" height="13" rx="2.5" fill="#0e4429" style="animation-delay:3.185s"/><rect class="c g" x="578" y="88" width="13" height="13" rx="2.5" fill="#0e4429" style="animation-delay:3.234s"/><rect class="c g" x="578" y="104" width="13" height="13" rx="2.5" fill="#0e4429" style="animation-delay:3.283s"/><rect class="c g" x="578" y="120" width="13" height="13" rx="2.5" fill="#0e4429" style="animation-delay:3.332s"/><rect class="c g" x="594" y="24" width="13" height="13" rx="2.5" fill="#0e4429" style="animation-delay:3.127s"/><rect class="c g" x="594" y="40" width="13" height="13" rx="2.5" fill="#0e4429" style="animation-delay:3.176s"/><rect class="c g" x="594" y="56" width="13" height="13" rx="2.5" fill="#0e4429" style="animation-delay:3.225s"/><rect class="c g" x="594" y="72" width="13" height="13" rx="2.5" fill="#0e4429" style="animation-delay:3.274s"/><rect class="c g" x="594" y="88" width="13" height="13" rx="2.5" fill="#0e4429" style="animation-delay:3.323s"/><rect class="c g" x="594" y="104" width="13" height="13" rx="2.5" fill="#0e4429" style="animation-delay:3.372s"/><rect class="c g" x="594" y="120" width="13" height="13" rx="2.5" fill="#0e4429" style="animation-delay:3.421s"/><rect class="c g" x="610" y="24" width="13" height="13" rx="2.5" fill="#0e4429" style="animation-delay:3.216s"/><rect class="c g" x="610" y="40" width="13" height="13" rx="2.5" fill="#0e4429" style="animation-delay:3.265s"/><rect class="c g" x="610" y="56" width="13" height="13" rx="2.5" fill="#0e4429" style="animation-delay:3.314s"/><rect class="c g" x="610" y="72" width="13" height="13" rx="2.5" fill="#0e4429" style="animation-delay:3.363s"/><rect class="c g" x="610" y="88" width="13" height="13" rx="2.5" fill="#0e4429" style="animation-delay:3.412s"/><rect class="c g" x="610" y="104" width="13" height="13" rx="2.5" fill="#0e4429" style="animation-delay:3.462s"/><rect class="c g" x="610" y="120" width="13" height="13" rx="2.5" fill="#0e4429" style="animation-delay:3.511s"/><rect class="c g" x="626" y="24" width="13" height="13" rx="2.5" fill="#0e4429" style="animation-delay:3.305s"/><rect class="c g" x="626" y="40" width="13" height="13" rx="2.5" fill="#0e4429" style="animation-delay:3.354s"/><rect class="c g" x="626" y="56" width="13" height="13" rx="2.5" fill="#0e4429" style="animation-delay:3.403s"/><rect class="c g" x="626" y="72" width="13" height="13" rx="2.5" fill="#0e4429" style="animation-delay:3.453s"/><rect class="c g" x="626" y="88" width="13" height="13" rx="2.5" fill="#0e4429" style="animation-delay:3.502s"/><rect class="c e" x="626" y="104" width="13" height="13" rx="2.5" fill="#161b22" style="animation-delay:3.551s"/>
<text class="total" x="34" y="152">Live contributions since Jan 2026</text>
</svg>